<svg width="597" height="360" viewBox="0 0 597 360" fill="none" xmlns="http://www.w3.org/2000/svg">
<g opacity="0.04" clip-path="url(#clip0_73_493)">
<path d="M125.959 255.517L52.7969 359.3L36.019 321.216L62.7218 283.377L16.7779 277.542L0 239.458L125.959 255.517Z" fill="#1E8DFC"/>
<path d="M273.984 190.303L200.721 294.131L183.943 256.047L210.747 218.163L164.702 212.373L147.924 174.289L273.984 190.303Z" fill="#1E8DFC"/>
<path d="M421.909 125.134L348.747 228.917L331.969 190.834L358.672 152.994L312.728 147.159L295.95 109.076L421.909 125.134Z" fill="#1E8DFC"/>
<path d="M569.934 59.9206L496.772 163.703L479.994 125.62L506.697 87.7802L460.753 81.9454L443.975 43.8621L569.934 59.9206Z" fill="#1E8DFC"/>
</g>
<defs>
<clipPath id="clip0_73_493">
<rect width="593.945" height="130.956" fill="white" transform="translate(0 239.458) rotate(-23.7762)"/>
</clipPath>
</defs>
</svg>
