<svg width="18" height="18" viewBox="0 0 18 18" fill="none" xmlns="http://www.w3.org/2000/svg">
<path d="M14.9999 7.20263C14.6399 7.20263 14.3999 6.96254 14.3999 6.60241C14.3999 3.60134 11.9999 1.20049 8.9999 1.20049C5.9999 1.20049 3.5999 3.60134 3.5999 6.60241C3.5999 6.96254 3.3599 7.20263 2.9999 7.20263C2.6399 7.20263 2.3999 6.96254 2.3999 6.60241C2.3999 3.00113 5.3999 6.10352e-05 8.9999 6.10352e-05C12.5999 6.10352e-05 15.5999 3.00113 15.5999 6.60241C15.5999 6.96254 15.3599 7.20263 14.9999 7.20263Z" fill="#23272A"/>
<path d="M2.4 13.4448C1.08 13.4448 0 12.3644 0 11.044V8.6431C0 7.32263 1.08 6.24225 2.4 6.24225C3.72 6.24225 4.8 7.32263 4.8 8.6431V11.044C4.8 12.3644 3.72 13.4448 2.4 13.4448ZM2.4 7.44268C1.68 7.44268 1.2 7.92285 1.2 8.6431V11.044C1.2 11.7642 1.68 12.2444 2.4 12.2444C3.12 12.2444 3.6 11.7642 3.6 11.044V8.6431C3.6 7.92285 3.12 7.44268 2.4 7.44268Z" fill="#23272A"/>
<path d="M15.6002 13.4448C14.2802 13.4448 13.2002 12.3644 13.2002 11.044V8.6431C13.2002 7.32263 14.2802 6.24225 15.6002 6.24225C16.9202 6.24225 18.0002 7.32263 18.0002 8.6431V11.044C18.0002 12.3644 16.9202 13.4448 15.6002 13.4448ZM15.6002 7.44268C14.8802 7.44268 14.4002 7.92285 14.4002 8.6431V11.044C14.4002 11.7642 14.8802 12.2444 15.6002 12.2444C16.3202 12.2444 16.8002 11.7642 16.8002 11.044V8.6431C16.8002 7.92285 16.3202 7.44268 15.6002 7.44268Z" fill="#23272A"/>
<path d="M16.0797 13.0847C15.9597 13.2048 13.9197 16.686 10.3197 16.686C9.95973 16.686 9.71973 16.4459 9.71973 16.0858C9.71973 15.7257 9.95973 15.4856 10.3197 15.4856C13.1997 15.4856 14.9997 12.4845 14.9997 12.4845L16.0797 13.0847Z" fill="#23272A"/>
<path d="M9.11982 17.8864C8.15982 17.8864 7.31982 17.0461 7.31982 16.0858C7.31982 15.1255 8.15982 14.2852 9.11982 14.2852C10.0798 14.2852 10.9198 15.1255 10.9198 16.0858C10.9198 17.0461 10.1998 17.8864 9.11982 17.8864ZM9.11982 15.4856C8.75982 15.4856 8.51982 15.7257 8.51982 16.0858C8.51982 16.4459 8.75982 16.686 9.11982 16.686C9.47982 16.686 9.71982 16.4459 9.71982 16.0858C9.71982 15.7257 9.47982 15.4856 9.11982 15.4856Z" fill="#23272A"/>
</svg>
