<svg width="600" height="600" viewBox="0 0 600 600" fill="none" xmlns="http://www.w3.org/2000/svg">
<g opacity="0.1">
<path d="M300.046 576.777C452.881 576.777 576.777 452.881 576.777 300.046C576.777 147.212 452.881 23.3153 300.046 23.3153C147.212 23.3153 23.3154 147.212 23.3154 300.046C23.3154 452.881 147.212 576.777 300.046 576.777Z" stroke="#4C6AED" stroke-width="0.7565" stroke-miterlimit="10"/>
<path d="M300.046 520.432C421.762 520.432 520.432 421.762 520.432 300.046C520.432 178.331 421.762 79.6606 300.046 79.6606C178.331 79.6606 79.6606 178.331 79.6606 300.046C79.6606 421.762 178.331 520.432 300.046 520.432Z" stroke="#4C6AED" stroke-width="0.7565" stroke-miterlimit="10"/>
<path d="M300.046 464.086C390.643 464.086 464.087 390.643 464.087 300.046C464.087 209.449 390.643 136.006 300.046 136.006C209.45 136.006 136.006 209.449 136.006 300.046C136.006 390.643 209.45 464.086 300.046 464.086Z" stroke="#4C6AED" stroke-width="0.7565" stroke-miterlimit="10"/>
<path d="M300.046 407.833C359.576 407.833 407.834 359.575 407.834 300.046C407.834 240.517 359.576 192.259 300.046 192.259C240.517 192.259 192.259 240.517 192.259 300.046C192.259 359.575 240.517 407.833 300.046 407.833Z" stroke="#4C6AED" stroke-width="0.7565" stroke-miterlimit="10"/>
<path d="M300.046 351.488C328.457 351.488 351.488 328.457 351.488 300.046C351.488 271.636 328.457 248.604 300.046 248.604C271.636 248.604 248.604 271.636 248.604 300.046C248.604 328.457 271.636 351.488 300.046 351.488Z" stroke="#4C6AED" stroke-width="0.7565" stroke-miterlimit="10"/>
</g>
</svg>
