<svg width="500" height="500" viewBox="0 0 500 500" fill="none" xmlns="http://www.w3.org/2000/svg">
<g opacity="0.1">
<path d="M250.039 480.648C377.401 480.648 480.648 377.4 480.648 250.039C480.648 122.677 377.401 19.4294 250.039 19.4294C122.677 19.4294 19.4297 122.677 19.4297 250.039C19.4297 377.4 122.677 480.648 250.039 480.648Z" stroke="#4C6AED" stroke-width="0.7565" stroke-miterlimit="10"/>
<path d="M250.039 433.693C351.469 433.693 433.693 351.468 433.693 250.039C433.693 148.609 351.469 66.3839 250.039 66.3839C148.609 66.3839 66.3843 148.609 66.3843 250.039C66.3843 351.468 148.609 433.693 250.039 433.693Z" stroke="#4C6AED" stroke-width="0.7565" stroke-miterlimit="10"/>
<path d="M250.039 386.739C325.536 386.739 386.739 325.536 386.739 250.038C386.739 174.541 325.536 113.338 250.039 113.338C174.542 113.338 113.339 174.541 113.339 250.038C113.339 325.536 174.542 386.739 250.039 386.739Z" stroke="#4C6AED" stroke-width="0.7565" stroke-miterlimit="10"/>
<path d="M250.039 339.861C299.647 339.861 339.862 299.646 339.862 250.038C339.862 200.431 299.647 160.216 250.039 160.216C200.431 160.216 160.216 200.431 160.216 250.038C160.216 299.646 200.431 339.861 250.039 339.861Z" stroke="#4C6AED" stroke-width="0.7565" stroke-miterlimit="10"/>
<path d="M250.039 292.907C273.714 292.907 292.907 273.714 292.907 250.039C292.907 226.363 273.714 207.17 250.039 207.17C226.363 207.17 207.17 226.363 207.17 250.039C207.17 273.714 226.363 292.907 250.039 292.907Z" stroke="#4C6AED" stroke-width="0.7565" stroke-miterlimit="10"/>
</g>
</svg>
