<svg width="24" height="24" viewBox="0 0 24 24" fill="none" xmlns="http://www.w3.org/2000/svg">
<path d="M8.81272 5.75626C8.58855 5.32775 8.53863 4.82919 8.67337 4.36474C8.80811 3.90028 9.1171 3.50585 9.53579 3.26383C9.95448 3.02182 10.4505 2.95093 10.9202 3.06599C11.3899 3.18104 11.797 3.47314 12.0565 3.88126L14.869 8.74688" stroke="#23272A" stroke-width="2" stroke-linecap="round" stroke-linejoin="round"/>
<path d="M6.31858 8.92497L4.81858 6.3281C4.59441 5.89958 4.54449 5.40103 4.67923 4.93657C4.81397 4.47212 5.12296 4.07769 5.54165 3.83567C5.96034 3.59366 6.45635 3.52277 6.92607 3.63783C7.39579 3.75288 7.80288 4.04498 8.06233 4.4531L11.2498 9.97497" stroke="#23272A" stroke-width="2" stroke-linecap="round" stroke-linejoin="round"/>
<path d="M14.4376 15.4969C14.1906 15.0711 14.0301 14.6008 13.9652 14.1128C13.9003 13.6249 13.9323 13.1289 14.0595 12.6534C14.1866 12.1779 14.4064 11.7321 14.7062 11.3417C15.0059 10.9512 15.3798 10.6238 15.8064 10.3782L14.8689 8.74691C14.6203 8.31552 14.5532 7.80302 14.6824 7.32217C14.8116 6.84131 15.1266 6.43148 15.558 6.18284C15.9894 5.9342 16.5018 5.86712 16.9827 5.99634C17.4636 6.12556 17.8734 6.44052 18.122 6.87191L19.997 10.125C20.9916 11.8481 21.2609 13.8957 20.7458 15.8174C20.2306 17.739 18.9732 19.3773 17.2501 20.3719C15.5271 21.3665 13.4795 21.6358 11.5578 21.1207C9.63615 20.6055 7.99784 19.3481 7.00327 17.625L3.06577 10.8C2.94266 10.5864 2.86282 10.3507 2.83082 10.1062C2.79882 9.86175 2.81529 9.61339 2.87927 9.37529C3.00849 8.89444 3.32345 8.48461 3.75484 8.23597C4.18623 7.98733 4.69872 7.92024 5.17958 8.04947C5.66043 8.17869 6.07026 8.49364 6.3189 8.92503L8.3814 12.4969" stroke="#23272A" stroke-width="2" stroke-linecap="round" stroke-linejoin="round"/>
<path d="M7.60312 22.5C6.32924 21.6214 5.2688 20.468 4.5 19.125" stroke="#23272A" stroke-width="2" stroke-linecap="round" stroke-linejoin="round"/>
<path d="M16.5 2.90627C17.3558 2.90395 18.1969 3.12825 18.9379 3.55639C19.6789 3.98452 20.2933 4.60121 20.7188 5.34377" stroke="#23272A" stroke-width="2" stroke-linecap="round" stroke-linejoin="round"/>
</svg>
