<svg width="10" height="6" viewBox="0 0 10 6" fill="none" xmlns="http://www.w3.org/2000/svg">
<path d="M9.81153 1.12452L5.58543 5.33853C5.53512 5.38854 5.48061 5.42389 5.42192 5.44456C5.36322 5.46557 5.30033 5.47607 5.23325 5.47607C5.16617 5.47607 5.10328 5.46557 5.04459 5.44456C4.98589 5.42389 4.93139 5.38854 4.88108 5.33853L0.642396 1.12452C0.525004 1.00782 0.466309 0.861931 0.466309 0.686868C0.466309 0.511806 0.529197 0.361753 0.654974 0.236708C0.780751 0.111664 0.92749 0.0491416 1.09519 0.0491416C1.2629 0.0491416 1.40963 0.111664 1.53541 0.236708L5.23325 3.91302L8.93109 0.236708C9.04848 0.12 9.19304 0.0616457 9.36477 0.0616457C9.53683 0.0616457 9.68575 0.124168 9.81153 0.249212C9.93731 0.374257 10.0002 0.520142 10.0002 0.686868C10.0002 0.853594 9.93731 0.99948 9.81153 1.12452Z" fill="#23272A"/>
</svg>
