<svg width="50" height="81" viewBox="0 0 50 81" fill="none" xmlns="http://www.w3.org/2000/svg">
<g clip-path="url(#clip0_73_403)">
<path d="M-0.000976562 78.39C-0.000976562 77.39 0.809023 76.58 1.80902 76.58C2.80902 76.58 3.61902 77.39 3.61902 78.39C3.61902 79.39 2.80902 80.2 1.80902 80.2C0.809023 80.2 -0.000976562 79.39 -0.000976562 78.39Z" fill="#1E8DFC"/>
<path d="M15.2089 78.39C15.2089 79.39 14.3989 80.2 13.3989 80.2C12.3989 80.2 11.5889 79.39 11.5889 78.39C11.5889 77.39 12.3989 76.58 13.3989 76.58C14.3989 76.58 15.2089 77.39 15.2089 78.39Z" fill="#1E8DFC"/>
<path d="M26.7992 78.39C26.7992 79.39 25.9892 80.2 24.9892 80.2C23.9892 80.2 23.1792 79.39 23.1792 78.39C23.1792 77.39 23.9892 76.58 24.9892 76.58C25.9892 76.58 26.7992 77.39 26.7992 78.39Z" fill="#1E8DFC"/>
<path d="M-0.000976562 67.45C-0.000976562 66.45 0.809023 65.64 1.80902 65.64C2.80902 65.64 3.61902 66.45 3.61902 67.45C3.61902 68.45 2.80902 69.26 1.80902 69.26C0.809023 69.26 -0.000976562 68.45 -0.000976562 67.45Z" fill="#1E8DFC"/>
<path d="M15.2089 67.45C15.2089 68.45 14.3989 69.26 13.3989 69.26C12.3989 69.26 11.5889 68.45 11.5889 67.45C11.5889 66.45 12.3989 65.64 13.3989 65.64C14.3989 65.64 15.2089 66.45 15.2089 67.45Z" fill="#1E8DFC"/>
<path d="M26.7992 67.45C26.7992 68.45 25.9892 69.26 24.9892 69.26C23.9892 69.26 23.1792 68.45 23.1792 67.45C23.1792 66.45 23.9892 65.64 24.9892 65.64C25.9892 65.64 26.7992 66.45 26.7992 67.45Z" fill="#1E8DFC"/>
<path d="M38.389 67.45C38.389 68.45 37.579 69.26 36.579 69.26C35.579 69.26 34.769 68.45 34.769 67.45C34.769 66.45 35.579 65.64 36.579 65.64C37.579 65.64 38.389 66.45 38.389 67.45Z" fill="#1E8DFC"/>
<path d="M-0.000976562 56.5099C-0.000976562 55.5099 0.809023 54.7 1.80902 54.7C2.80902 54.7 3.61902 55.5099 3.61902 56.5099C3.61902 57.5099 2.80902 58.32 1.80902 58.32C0.809023 58.32 -0.000976562 57.5099 -0.000976562 56.5099Z" fill="#1E8DFC"/>
<path d="M15.2089 56.5099C15.2089 57.5099 14.3989 58.32 13.3989 58.32C12.3989 58.32 11.5889 57.5099 11.5889 56.5099C11.5889 55.5099 12.3989 54.7 13.3989 54.7C14.3989 54.7 15.2089 55.5099 15.2089 56.5099Z" fill="#1E8DFC"/>
<path d="M26.7992 56.5099C26.7992 57.5099 25.9892 58.32 24.9892 58.32C23.9892 58.32 23.1792 57.5099 23.1792 56.5099C23.1792 55.5099 23.9892 54.7 24.9892 54.7C25.9892 54.7 26.7992 55.5099 26.7992 56.5099Z" fill="#1E8DFC"/>
<path d="M38.389 56.5099C38.389 57.5099 37.579 58.32 36.579 58.32C35.579 58.32 34.769 57.5099 34.769 56.5099C34.769 55.5099 35.579 54.7 36.579 54.7C37.579 54.7 38.389 55.5099 38.389 56.5099Z" fill="#1E8DFC"/>
<path d="M-0.000976562 45.57C-0.000976562 44.57 0.809023 43.76 1.80902 43.76C2.80902 43.76 3.61902 44.57 3.61902 45.57C3.61902 46.57 2.80902 47.38 1.80902 47.38C0.809023 47.38 -0.000976562 46.57 -0.000976562 45.57Z" fill="#1E8DFC"/>
<path d="M15.2089 45.57C15.2089 46.57 14.3989 47.38 13.3989 47.38C12.3989 47.38 11.5889 46.57 11.5889 45.57C11.5889 44.57 12.3989 43.76 13.3989 43.76C14.3989 43.76 15.2089 44.57 15.2089 45.57Z" fill="#1E8DFC"/>
<path d="M26.7992 45.57C26.7992 46.57 25.9892 47.38 24.9892 47.38C23.9892 47.38 23.1792 46.57 23.1792 45.57C23.1792 44.57 23.9892 43.76 24.9892 43.76C25.9892 43.76 26.7992 44.57 26.7992 45.57Z" fill="#1E8DFC"/>
<path d="M38.389 45.57C38.389 46.57 37.579 47.38 36.579 47.38C35.579 47.38 34.769 46.57 34.769 45.57C34.769 44.57 35.579 43.76 36.579 43.76C37.579 43.76 38.389 44.57 38.389 45.57Z" fill="#1E8DFC"/>
<path d="M49.9789 45.57C49.9789 46.57 49.1689 47.38 48.1689 47.38C47.1689 47.38 46.3589 46.57 46.3589 45.57C46.3589 44.57 47.1689 43.76 48.1689 43.76C49.1689 43.76 49.9789 44.57 49.9789 45.57Z" fill="#1E8DFC"/>
<path d="M-0.000976562 34.63C-0.000976562 33.63 0.809023 32.82 1.80902 32.82C2.80902 32.82 3.61902 33.63 3.61902 34.63C3.61902 35.63 2.80902 36.44 1.80902 36.44C0.809023 36.44 -0.000976562 35.63 -0.000976562 34.63Z" fill="#1E8DFC"/>
<path d="M15.2089 34.63C15.2089 35.63 14.3989 36.44 13.3989 36.44C12.3989 36.44 11.5889 35.63 11.5889 34.63C11.5889 33.63 12.3989 32.82 13.3989 32.82C14.3989 32.82 15.2089 33.63 15.2089 34.63Z" fill="#1E8DFC"/>
<path d="M26.7992 34.63C26.7992 35.63 25.9892 36.44 24.9892 36.44C23.9892 36.44 23.1792 35.63 23.1792 34.63C23.1792 33.63 23.9892 32.82 24.9892 32.82C25.9892 32.82 26.7992 33.63 26.7992 34.63Z" fill="#1E8DFC"/>
<path d="M38.389 34.63C38.389 35.63 37.579 36.44 36.579 36.44C35.579 36.44 34.769 35.63 34.769 34.63C34.769 33.63 35.579 32.82 36.579 32.82C37.579 32.82 38.389 33.63 38.389 34.63Z" fill="#1E8DFC"/>
<path d="M49.9789 34.63C49.9789 35.63 49.1689 36.44 48.1689 36.44C47.1689 36.44 46.3589 35.63 46.3589 34.63C46.3589 33.63 47.1689 32.82 48.1689 32.82C49.1689 32.82 49.9789 33.63 49.9789 34.63Z" fill="#1E8DFC"/>
<path d="M-0.000976562 23.69C-0.000976562 22.69 0.809023 21.88 1.80902 21.88C2.80902 21.88 3.61902 22.69 3.61902 23.69C3.61902 24.69 2.80902 25.5 1.80902 25.5C0.809023 25.5 -0.000976562 24.69 -0.000976562 23.69Z" fill="#1E8DFC"/>
<path d="M15.2089 23.69C15.2089 24.69 14.3989 25.5 13.3989 25.5C12.3989 25.5 11.5889 24.69 11.5889 23.69C11.5889 22.69 12.3989 21.88 13.3989 21.88C14.3989 21.88 15.2089 22.69 15.2089 23.69Z" fill="#1E8DFC"/>
<path d="M26.7992 23.69C26.7992 24.69 25.9892 25.5 24.9892 25.5C23.9892 25.5 23.1792 24.69 23.1792 23.69C23.1792 22.69 23.9892 21.88 24.9892 21.88C25.9892 21.88 26.7992 22.69 26.7992 23.69Z" fill="#1E8DFC"/>
<path d="M38.389 23.69C38.389 24.69 37.579 25.5 36.579 25.5C35.579 25.5 34.769 24.69 34.769 23.69C34.769 22.69 35.579 21.88 36.579 21.88C37.579 21.88 38.389 22.69 38.389 23.69Z" fill="#1E8DFC"/>
<path d="M-0.000976562 12.75C-0.000976562 11.75 0.809023 10.94 1.80902 10.94C2.80902 10.94 3.61902 11.75 3.61902 12.75C3.61902 13.75 2.80902 14.56 1.80902 14.56C0.809023 14.56 -0.000976562 13.75 -0.000976562 12.75Z" fill="#1E8DFC"/>
<path d="M15.2089 12.75C15.2089 13.75 14.3989 14.56 13.3989 14.56C12.3989 14.56 11.5889 13.75 11.5889 12.75C11.5889 11.75 12.3989 10.94 13.3989 10.94C14.3989 10.94 15.2089 11.75 15.2089 12.75Z" fill="#1E8DFC"/>
<path d="M26.7992 12.75C26.7992 13.75 25.9892 14.56 24.9892 14.56C23.9892 14.56 23.1792 13.75 23.1792 12.75C23.1792 11.75 23.9892 10.94 24.9892 10.94C25.9892 10.94 26.7992 11.75 26.7992 12.75Z" fill="#1E8DFC"/>
<path d="M38.389 12.75C38.389 13.75 37.579 14.56 36.579 14.56C35.579 14.56 34.769 13.75 34.769 12.75C34.769 11.75 35.579 10.94 36.579 10.94C37.579 10.94 38.389 11.75 38.389 12.75Z" fill="#1E8DFC"/>
<path d="M-0.000976562 1.81C-0.000976562 0.81 0.809023 0 1.80902 0C2.80902 0 3.61902 0.81 3.61902 1.81C3.61902 2.81 2.80902 3.62 1.80902 3.62C0.809023 3.62 -0.000976562 2.81 -0.000976562 1.81Z" fill="#1E8DFC"/>
<path d="M15.2089 1.81C15.2089 2.81 14.3989 3.62 13.3989 3.62C12.3989 3.62 11.5889 2.81 11.5889 1.81C11.5889 0.81 12.3989 0 13.3989 0C14.3989 0 15.2089 0.81 15.2089 1.81Z" fill="#1E8DFC"/>
<path d="M26.7992 1.81C26.7992 2.81 25.9892 3.62 24.9892 3.62C23.9892 3.62 23.1792 2.81 23.1792 1.81C23.1792 0.81 23.9892 0 24.9892 0C25.9892 0 26.7992 0.81 26.7992 1.81Z" fill="#1E8DFC"/>
</g>
<defs>
<clipPath id="clip0_73_403">
<rect width="49.98" height="80.2" fill="white" transform="translate(-0.000976562)"/>
</clipPath>
</defs>
</svg>
