<svg width="30" height="30" viewBox="0 0 30 30" fill="none" xmlns="http://www.w3.org/2000/svg">
<g clip-path="url(#clip0_28_2)">
<g filter="url(#filter0_f_28_2)">
<circle cx="15" cy="15" r="14" fill="#111111" fill-opacity="0.25"/>
</g>
<path d="M22.5 6.25H7.5V23.75H22.5V6.25Z" fill="#111111"/>
<path fill-rule="evenodd" clip-rule="evenodd" d="M1.25 15C1.25 22.5937 7.40625 28.75 15 28.75C22.5937 28.75 28.75 22.5937 28.75 15C28.75 7.40625 22.5937 1.25 15 1.25C7.40625 1.25 1.25 7.40625 1.25 15ZM12.2412 19.1163C12.0136 19.352 11.8876 19.6678 11.8904 19.9955C11.8933 20.3232 12.0247 20.6368 12.2565 20.8685C12.4882 21.1003 12.8018 21.2317 13.1295 21.2346C13.4572 21.2374 13.773 21.1114 14.0087 20.8837L19.0087 15.8837C19.2431 15.6493 19.3747 15.3315 19.3747 15C19.3747 14.6685 19.2431 14.3507 19.0087 14.1163L14.0087 9.11625C13.773 8.88855 13.4572 8.76256 13.1295 8.76541C12.8018 8.76825 12.4882 8.89972 12.2565 9.13148C12.0247 9.36324 11.8933 9.67675 11.8904 10.0045C11.8876 10.3322 12.0136 10.648 12.2412 10.8837L16.3575 15L12.2412 19.1163Z" fill="white"/>
</g>
<defs>
<filter id="filter0_f_28_2" x="-2" y="-2" width="34" height="34" filterUnits="userSpaceOnUse" color-interpolation-filters="sRGB">
<feFlood flood-opacity="0" result="BackgroundImageFix"/>
<feBlend mode="normal" in="SourceGraphic" in2="BackgroundImageFix" result="shape"/>
<feGaussianBlur stdDeviation="1.5" result="effect1_foregroundBlur_28_2"/>
</filter>
<clipPath id="clip0_28_2">
<rect width="30" height="30" fill="white"/>
</clipPath>
</defs>
</svg>
